<mxfile host="Electron" modified="2024-03-16T11:04:09.085Z" agent="Mozilla/5.0 (Windows NT 10.0; Win64; x64) AppleWebKit/537.36 (KHTML, like Gecko) draw.io/23.1.5 Chrome/120.0.6099.109 Electron/28.1.0 Safari/537.36" etag="RRWrKpQvVg-8WekZNUqw" version="23.1.5" type="device">
  <diagram id="R2lEEEUBdFMjLlhIrx00" name="Page-1">
    <mxGraphModel dx="1212" dy="2218" grid="1" gridSize="10" guides="1" tooltips="1" connect="1" arrows="1" fold="1" page="1" pageScale="1" pageWidth="850" pageHeight="1100" math="0" shadow="0" extFonts="Permanent Marker^https://fonts.googleapis.com/css?family=Permanent+Marker">
      <root>
        <mxCell id="0" />
        <mxCell id="1" parent="0" />
        <mxCell id="8yXbjDLhTRy9jlX9geq2-1" value="" style="shape=image;verticalLabelPosition=bottom;labelBackgroundColor=default;verticalAlign=top;aspect=fixed;imageAspect=0;image=https://relipos.com/wp-content/uploads/2021/06/mo-hinh-erd-quan-ly-ban-hang-4.jpg;" vertex="1" parent="1">
          <mxGeometry x="480" y="-230" width="728" height="546" as="geometry" />
        </mxCell>
        <mxCell id="8yXbjDLhTRy9jlX9geq2-2" value="EmpInfo" style="rounded=0;whiteSpace=wrap;html=1;" vertex="1" parent="1">
          <mxGeometry x="360" y="640" width="120" height="60" as="geometry" />
        </mxCell>
        <mxCell id="8yXbjDLhTRy9jlX9geq2-3" value="" style="rhombus;whiteSpace=wrap;html=1;" vertex="1" parent="1">
          <mxGeometry x="340" y="500" width="80" height="80" as="geometry" />
        </mxCell>
        <mxCell id="8yXbjDLhTRy9jlX9geq2-4" value="Payroll" style="rounded=0;whiteSpace=wrap;html=1;" vertex="1" parent="1">
          <mxGeometry x="160" y="540" width="120" height="60" as="geometry" />
        </mxCell>
        <mxCell id="8yXbjDLhTRy9jlX9geq2-5" value="" style="rhombus;whiteSpace=wrap;html=1;" vertex="1" parent="1">
          <mxGeometry x="600" y="630" width="80" height="80" as="geometry" />
        </mxCell>
        <mxCell id="8yXbjDLhTRy9jlX9geq2-6" value="Rating" style="rounded=0;whiteSpace=wrap;html=1;" vertex="1" parent="1">
          <mxGeometry x="160" y="450" width="120" height="60" as="geometry" />
        </mxCell>
        <mxCell id="8yXbjDLhTRy9jlX9geq2-7" value="" style="rhombus;whiteSpace=wrap;html=1;" vertex="1" parent="1">
          <mxGeometry x="1040" y="630" width="80" height="80" as="geometry" />
        </mxCell>
        <mxCell id="8yXbjDLhTRy9jlX9geq2-8" value="LearnDevelop" style="rounded=0;whiteSpace=wrap;html=1;" vertex="1" parent="1">
          <mxGeometry x="160" y="640" width="120" height="60" as="geometry" />
        </mxCell>
        <mxCell id="8yXbjDLhTRy9jlX9geq2-9" value="DailyRP" style="rounded=0;whiteSpace=wrap;html=1;" vertex="1" parent="1">
          <mxGeometry x="800" y="640" width="120" height="60" as="geometry" />
        </mxCell>
        <mxCell id="8yXbjDLhTRy9jlX9geq2-10" value="MonthlyRP" style="rounded=0;whiteSpace=wrap;html=1;" vertex="1" parent="1">
          <mxGeometry x="1240" y="640" width="120" height="60" as="geometry" />
        </mxCell>
        <mxCell id="8yXbjDLhTRy9jlX9geq2-11" value="TimeTrack" style="rounded=0;whiteSpace=wrap;html=1;" vertex="1" parent="1">
          <mxGeometry x="160" y="740" width="120" height="60" as="geometry" />
        </mxCell>
        <mxCell id="8yXbjDLhTRy9jlX9geq2-12" value="RecruitInfo" style="rounded=0;whiteSpace=wrap;html=1;" vertex="1" parent="1">
          <mxGeometry x="360" y="740" width="120" height="60" as="geometry" />
        </mxCell>
      </root>
    </mxGraphModel>
  </diagram>
</mxfile>
